<svg xmlns="http://www.w3.org/2000/svg" width="54" height="54" viewBox="0 0 54 54" fill="none">
<path d="M13.6489 24.1569C13.6489 23.3394 13.6489 22.9306 13.8012 22.5631C13.9534 22.1955 14.2424 21.9065 14.8205 21.3284L19.2274 16.9216C19.8054 16.3435 20.0944 16.0545 20.462 15.9022C20.8295 15.75 21.2383 15.75 22.0558 15.75H32.2421C33.0596 15.75 33.4683 15.75 33.8359 15.9022C34.2034 16.0545 34.4924 16.3435 35.0705 16.9216L39.4774 21.3284C40.0554 21.9065 40.3444 22.1955 40.4967 22.5631C40.6489 22.9306 40.6489 23.3394 40.6489 24.1569V41C40.6489 42.8856 40.6489 43.8284 40.0631 44.4142C39.4774 45 38.5345 45 36.6489 45H17.6489C15.7633 45 14.8205 45 14.2347 44.4142C13.6489 43.8284 13.6489 42.8856 13.6489 41V24.1569Z" fill="white" stroke="#33363F" stroke-width="2"/>
<path d="M20.3989 15.75L13.7876 11.3425C13.7036 11.2865 13.5942 11.2865 13.5103 11.3424L7.15266 15.5808C7.02139 15.6684 7.003 15.8541 7.11456 15.9656L13.1829 22.034C13.4813 22.3324 13.6489 22.7371 13.6489 23.159V23.159C13.6489 24.0377 14.3612 24.75 15.2399 24.75H39.0579C39.9366 24.75 40.6489 24.0377 40.6489 23.159V23.159C40.6489 22.7371 40.8165 22.3324 41.1149 22.034L47.1833 15.9656C47.2948 15.8541 47.2765 15.6684 47.1452 15.5808L40.7876 11.3424C40.7036 11.2865 40.5942 11.2865 40.5103 11.3425L33.8989 15.75" stroke="#33363F" stroke-width="2" stroke-linecap="round"/>
</svg>