<svg xmlns="http://www.w3.org/2000/svg" width="54" height="47" viewBox="0 0 54 47" fill="none">
<rect x="6.75" y="11.75" width="40.5" height="29.375" rx="2" fill="white" stroke="#33363F" stroke-width="2"/>
<path d="M6.75 15.75C6.75 13.8644 6.75 12.9216 7.33579 12.3358C7.92157 11.75 8.86438 11.75 10.75 11.75H43.25C45.1356 11.75 46.0784 11.75 46.6642 12.3358C47.25 12.9216 47.25 13.8644 47.25 15.75V19.5833H6.75V15.75Z" fill="#33363F"/>
<path d="M15.75 5.875L15.75 11.75" stroke="#33363F" stroke-width="2" stroke-linecap="round"/>
<path d="M38.25 5.875L38.25 11.75" stroke="#33363F" stroke-width="2" stroke-linecap="round"/>
<path d="M23.8239 28.019C23.8672 27.1523 24.1706 26.485 24.7339 26.017C25.3059 25.5403 26.0556 25.302 26.9829 25.302C27.6156 25.302 28.1572 25.4147 28.6079 25.64C29.0586 25.8567 29.3966 26.1557 29.6219 26.537C29.8559 26.9097 29.9729 27.3343 29.9729 27.811C29.9729 28.357 29.8299 28.8207 29.5439 29.202C29.2666 29.5747 28.9329 29.826 28.5429 29.956V30.008C29.0456 30.164 29.4356 30.4413 29.7129 30.84C29.9989 31.2387 30.1419 31.75 30.1419 32.374C30.1419 32.894 30.0206 33.3577 29.7779 33.765C29.5439 34.1723 29.1929 34.493 28.7249 34.727C28.2656 34.9523 27.7109 35.065 27.0609 35.065C26.0816 35.065 25.2842 34.818 24.6689 34.324C24.0536 33.83 23.7286 33.102 23.6939 32.14H25.4619C25.4792 32.5647 25.6222 32.907 25.8909 33.167C26.1682 33.4183 26.5452 33.544 27.0219 33.544C27.4639 33.544 27.8019 33.4227 28.0359 33.18C28.2786 32.9287 28.3999 32.608 28.3999 32.218C28.3999 31.698 28.2352 31.3253 27.9059 31.1C27.5766 30.8747 27.0652 30.762 26.3719 30.762H25.9949V29.267H26.3719C27.6026 29.267 28.2179 28.8553 28.2179 28.032C28.2179 27.6593 28.1052 27.369 27.8799 27.161C27.6632 26.953 27.3469 26.849 26.9309 26.849C26.5236 26.849 26.2072 26.9617 25.9819 27.187C25.7652 27.4037 25.6396 27.681 25.6049 28.019H23.8239Z" fill="black"/>
</svg>