<svg width="5vw" height="100%" viewBox="0 0 24 23" fill="none" xmlns="http://www.w3.org/2000/svg">
<path d="M22.4598 9.9922H5.25583L12.772 2.59556C13.3727 2.00443 13.3727 1.03438 12.772 0.443258C12.6295 0.302747 12.4602 0.191271 12.2739 0.11521C12.0876 0.0391502 11.8879 0 11.6861 0C11.4844 0 11.2847 0.0391502 11.0984 0.11521C10.912 0.191271 10.7428 0.302747 10.6003 0.443258L0.450421 10.4318C0.30764 10.572 0.194362 10.7385 0.117073 10.9219C0.0397835 11.1053 0 11.3018 0 11.5003C0 11.6988 0.0397835 11.8954 0.117073 12.0788C0.194362 12.2621 0.30764 12.4287 0.450421 12.5689L10.6003 22.5574C10.7429 22.6977 10.9122 22.809 11.0985 22.885C11.2848 22.9609 11.4845 23 11.6861 23C11.8878 23 12.0875 22.9609 12.2738 22.885C12.4601 22.809 12.6294 22.6977 12.772 22.5574C12.9146 22.4171 13.0277 22.2505 13.1049 22.0671C13.182 21.8838 13.2217 21.6873 13.2217 21.4888C13.2217 21.2904 13.182 21.0939 13.1049 20.9105C13.0277 20.7272 12.9146 20.5606 12.772 20.4202L5.25583 13.0236H22.4598C23.3069 13.0236 24 12.3415 24 11.5079C24 10.6743 23.3069 9.9922 22.4598 9.9922Z" fill="white" fill-opacity="0.98"/>
</svg>
